<svg id="Layer_1" data-name="Layer 1" xmlns="http://www.w3.org/2000/svg" viewBox="0 0 106.97 109.76"><defs><style>.cls-1,.cls-2{fill:none;stroke-miterlimit:10;stroke-width:3px;}.cls-1{stroke:#706f6f;}.cls-2{stroke:#1d1d1b;}</style></defs><rect class="cls-1" x="23.07" y="13.03" width="61.32" height="88.57" rx="2.83" transform="translate(-24.67 32.73) rotate(-30)"/><path class="cls-1" d="M68.48,21.5h36.33a3.87,3.87,0,0,1,3.87,3.87v80.84a3.86,3.86,0,0,1-3.87,3.86H51.22a3.82,3.82,0,0,1-3-1.38" transform="translate(-3.21 -1.81)"/><rect class="cls-2" x="21.71" y="11.67" width="61.32" height="88.57" rx="2.83" transform="translate(-24.17 31.87) rotate(-30)"/><path class="cls-2" d="M67.12,20.14h36.33A3.86,3.86,0,0,1,107.31,24v80.85a3.86,3.86,0,0,1-3.86,3.86H49.86a3.89,3.89,0,0,1-3-1.38" transform="translate(-3.21 -1.81)"/></svg>