<svg xmlns="http://www.w3.org/2000/svg" id="Layer_1" data-name="Layer 1" viewBox="0 0 109.78 95.27"><defs><style>.cls-1,.cls-3{fill:none}.cls-1,.cls-2{stroke:#706f6f}.cls-1,.cls-2,.cls-3,.cls-4{stroke-miterlimit:10;stroke-width:3px}.cls-2,.cls-4{fill:#1d1d1b}.cls-3,.cls-4{stroke:#1d1d1b}</style></defs><path d="M2.5 39h105.78v51.93a2.83 2.83 0 0 1-2.83 2.83H5.33a2.83 2.83 0 0 1-2.83-2.83V39Z" class="cls-1"/><path d="M91 2.5h2.5a2 2 0 0 1 2 2v6.58H89V4.5a2 2 0 0 1 2-2ZM15.54 2.5h1.72a2 2 0 0 1 2 2v6.58h-5.72V4.5a2 2 0 0 1 2-2Z" class="cls-2"/><path d="M2.5 39.04V17.76a4.05 4.05 0 0 1 4.05-4.05h97.73a4.05 4.05 0 0 1 4 4.05v21.28" class="cls-1"/><path d="M1.5 38h105.78v51.93a2.83 2.83 0 0 1-2.83 2.83H4.33a2.83 2.83 0 0 1-2.83-2.83V38Z" class="cls-3"/><path d="M90 1.5h2.5a2 2 0 0 1 2 2v6.58H88V3.5a2 2 0 0 1 2-2ZM14.54 1.5h1.72a2 2 0 0 1 2 2v6.58h-5.72V3.5a2 2 0 0 1 2-2Z" class="cls-4"/><path d="M1.5 38.04V16.76a4.05 4.05 0 0 1 4.05-4.05h97.73a4.05 4.05 0 0 1 4 4.05v21.28" class="cls-3"/></svg>