<svg xmlns="http://www.w3.org/2000/svg" id="Layer_1" data-name="Layer 1" viewBox="0 0 106.97 109.76"><defs><style>.cls-1,.cls-2{fill:none;stroke-miterlimit:10;stroke-width:3px}.cls-1{stroke:#706f6f}.cls-2{stroke:#1d1d1b}</style></defs><rect width="61.32" height="88.57" x="23.07" y="13.03" class="cls-1" rx="2.83" transform="rotate(-30 48.74 62.4)"/><path d="M65.27 19.69h36.33a3.87 3.87 0 0 1 3.87 3.87v80.84a3.86 3.86 0 0 1-3.87 3.86H48.01a3.82 3.82 0 0 1-3-1.38" class="cls-1"/><rect width="61.32" height="88.57" x="21.71" y="11.67" class="cls-2" rx="2.83" transform="rotate(-30 47.385 61.037)"/><path d="M63.91 18.33h36.33a3.86 3.86 0 0 1 3.86 3.86v80.85a3.86 3.86 0 0 1-3.86 3.86H46.65a3.89 3.89 0 0 1-3-1.38" class="cls-2"/></svg>